<?xml version="1.0"?>
<svg xmlns="http://www.w3.org/2000/svg" xmlns:xlink="http://www.w3.org/1999/xlink" version="1.1" id="Capa_1" x="0px" y="0px" viewBox="0 0 420.685 420.685" style="enable-background:new 0 0 420.685 420.685;" xml:space="preserve" width="512px" height="512px"><g><g>
	<g>
		<path d="M384.543,33.84C321.583,3.6,214.943,0.08,210.223,0c-4.48,0-111.12,3.6-174.08,33.84c-2.778,1.323-4.551,4.123-4.56,7.2    V213.2c0,5.28,3.2,130.32,176,206.8c2.063,0.914,4.417,0.914,6.48,0c172.16-76.56,174.96-201.68,175.04-206.88V41.04    C389.094,37.963,387.321,35.163,384.543,33.84z M373.103,213.04c0,1.2-2.96,118.4-162.88,190.88    c-159.28-72-162.8-186-162.88-190.8V46.16c58.88-26.24,157.36-30,162.88-30.16c5.52-0.16,104,3.92,162.88,30.16V213.04z" data-original="#000000" class="active-path" data-old_color="#FFF700" fill="#FFC300"/>
	</g>
</g><g>
	<g>
		<path d="M346.783,71.52c-49.28-24-132.56-26.4-136-26.48h-0.56c-3.76,0.08-87.04,2.72-136,26.4h0    c-2.778,1.323-4.551,4.123-4.56,7.2v133.92c0,4.16,2.56,102.48,137.6,162.4c2.063,0.914,4.417,0.914,6.48,0    c135.12-59.92,137.6-158.24,137.6-162.48V78.72C351.334,75.643,349.561,72.843,346.783,71.52z M335.423,212.4    c0,3.68-2.88,90.88-124.88,146.48c-122-56-124.8-142.8-124.88-146.4V83.84c45.6-19.76,120-22.64,124.88-22.88    s78.96,3.12,124.56,22.88l0.32-0.08V212.4z" data-original="#000000" class="active-path" data-old_color="#FFF700" fill="#FFC300"/>
	</g>
</g><g>
	<g>
		<path d="M269.583,152.96h-4c-4.689-30.928-33.563-52.199-64.491-47.509c-24.534,3.72-43.79,22.976-47.509,47.509h-2.48    c-8.837,0-16,7.163-16,16v81.36c-0.001,8.744,7.017,15.869,15.76,16h118.72c8.837,0,16-7.163,16-16v-81.36    C285.583,160.123,278.419,152.96,269.583,152.96z M209.461,120.241c19.405,0.014,36.118,13.695,39.962,32.719h-80    C173.272,133.907,190.027,120.219,209.461,120.241z M269.583,250.32h-118.72v-81.36h118.72V250.32z" data-original="#000000" class="active-path" data-old_color="#FFF700" fill="#FFC300"/>
	</g>
</g><g>
	<g>
		<path d="M210.223,188c-4.418,0-8,3.582-8,8v27.36c0,4.418,3.582,8,8,8s8-3.582,8-8V196C218.223,191.582,214.641,188,210.223,188z" data-original="#000000" class="active-path" data-old_color="#FFF700" fill="#FFC300"/>
	</g>
</g></g> </svg>
