<?xml version="1.0"?>
<svg xmlns="http://www.w3.org/2000/svg" xmlns:xlink="http://www.w3.org/1999/xlink" version="1.1" id="Capa_1" x="0px" y="0px" viewBox="0 0 512 512" style="enable-background:new 0 0 512 512;" xml:space="preserve" width="512px" height="512px" class=""><g><g>
	<g>
		<path d="M490.667,373.333c0,17.673-14.327,32-32,32H256v21.333h202.667c29.441-0.035,53.298-23.893,53.333-53.333H490.667z" data-original="#000000" class="active-path" data-old_color="#FFE000" fill="#FFC300"/>
	</g>
</g><g>
	<g>
		<path d="M170.667,405.333H53.333c-17.673,0-32-14.327-32-32V138.667c0-17.673,14.327-32,32-32h85.333V85.333H53.333    C23.893,85.369,0.035,109.226,0,138.667v234.667c0.035,29.441,23.893,53.298,53.333,53.333H160v22.4    c-25.601,3.762-44.106,26.431-42.667,52.267h21.333c-0.058-1.081-0.058-2.163,0-3.244c0.896-16.777,15.223-29.652,32-28.756    c5.891,0,10.667-4.776,10.667-10.667V416C181.333,410.109,176.558,405.333,170.667,405.333z" data-original="#000000" class="active-path" data-old_color="#FFE000" fill="#FFC300"/>
	</g>
</g><g>
	<g>
		<path d="M352,449.067V416h-21.333v42.667c0,5.866,4.737,10.631,10.603,10.667c1.088-0.06,2.178-0.061,3.266-0.003    c16.79,0.885,29.683,15.214,28.798,32.003h21.333C396.106,475.497,377.601,452.829,352,449.067z" data-original="#000000" class="active-path" data-old_color="#FFE000" fill="#FFC300"/>
	</g>
</g><g>
	<g>
		<rect x="96" y="490.667" width="320" height="21.333" data-original="#000000" class="active-path" data-old_color="#FFE000" fill="#FFC300"/>
	</g>
</g><g>
	<g>
		<rect x="170.667" y="448" width="85.333" height="21.333" data-original="#000000" class="active-path" data-old_color="#FFE000" fill="#FFC300"/>
	</g>
</g><g>
	<g>
		<rect x="10.667" y="330.667" width="128" height="21.333" data-original="#000000" class="active-path" data-old_color="#FFE000" fill="#FFC300"/>
	</g>
</g><g>
	<g>
		<path d="M74.667,128c-17.673,0-32,14.327-32,32v21.333H64V160c0-5.891,4.776-10.667,10.667-10.667H96V128H74.667z" data-original="#000000" class="active-path" data-old_color="#FFE000" fill="#FFC300"/>
	</g>
</g><g>
	<g>
		<path d="M458.667,0H128C98.545,0,74.667,23.878,74.667,53.333V96H96V53.333c0.014-9.018,3.824-17.613,10.496-23.68    c5.868-5.377,13.545-8.347,21.504-8.32h0.427c0.917,0.011,1.845,0.064,2.773,0.149c16.77,2.269,29.164,16.766,28.8,33.685V320    c0,17.673,14.327,32,32,32h288c17.673,0,32-14.327,32-32V53.333C511.965,23.893,488.107,0.035,458.667,0z M490.667,320    c0,5.891-4.776,10.667-10.667,10.667H192c-5.891,0-10.667-4.776-10.667-10.667V55.168c-0.001-12.208-3.973-24.083-11.317-33.835    h288.651c17.673,0,32,14.327,32,32V320z" data-original="#000000" class="active-path" data-old_color="#FFE000" fill="#FFC300"/>
	</g>
</g><g>
	<g>
		<path d="M340.8,32.533c-41.237,0.295-74.428,33.963-74.133,75.2C267.2,112.469,279.061,224,341.333,224    s74.133-111.531,74.613-116.267c0.053-0.363,0.053-0.715,0.053-1.067C415.705,65.429,382.037,32.239,340.8,32.533z     M341.333,202.667c-35.509,0-50.453-69.141-53.333-96.523c0-29.455,23.878-53.333,53.333-53.333s53.333,23.878,53.333,53.333    C391.787,133.525,376.843,202.667,341.333,202.667z" data-original="#000000" class="active-path" data-old_color="#FFE000" fill="#FFC300"/>
	</g>
</g><g>
	<g>
		<path d="M341.333,74.667c-17.673,0-32,14.327-32,32c0,17.673,14.327,32,32,32c17.673,0,32-14.327,32-32    C373.333,88.994,359.006,74.667,341.333,74.667z M341.333,117.333c-5.891,0-10.667-4.776-10.667-10.667S335.442,96,341.333,96    c5.891,0,10.667,4.776,10.667,10.667S347.224,117.333,341.333,117.333z" data-original="#000000" class="active-path" data-old_color="#FFE000" fill="#FFC300"/>
	</g>
</g><g>
	<g>
		<rect x="224" y="245.333" width="224" height="21.333" data-original="#000000" class="active-path" data-old_color="#FFE000" fill="#FFC300"/>
	</g>
</g><g>
	<g>
		<rect x="224" y="288" width="181.333" height="21.333" data-original="#000000" class="active-path" data-old_color="#FFE000" fill="#FFC300"/>
	</g>
</g><g>
	<g>
		<rect x="426.667" y="288" width="21.333" height="21.333" data-original="#000000" class="active-path" data-old_color="#FFE000" fill="#FFC300"/>
	</g>
</g></g> </svg>
